<?xml version="1.0" encoding="UTF-8"?>
<svg xmlns="http://www.w3.org/2000/svg" width="304.9110961914062" height="304.9110961914062" viewBox="0 0 312.5 312.5">
  <title>logo</title>
  <desc>Cleaned SVG: standard namespaces; safe to save from Notepad.</desc>
  <g id="SvgjsG25736" transform="matrix(1.5902660807115943,0,0,1.5902660807115943,0,0)" fill="#47ccd5">
    <path d="M98.254 0C44.077 0 0 44.076 0 98.254s44.077 98.254 98.254 98.254c54.177 0 98.254-44.076 98.254-98.254S152.431 0 98.254 0zm0 195.508C44.628 195.508 1 151.88 1 98.254S44.628 1 98.254 1c53.626 0 97.254 43.628 97.254 97.254s-43.628 97.254-97.254 97.254z"/>
    <path d="M98.254 5.453c-51.171 0-92.801 41.63-92.801 92.801s41.63 92.801 92.801 92.801 92.802-41.63 92.802-92.801S149.425 5.453 98.254 5.453z"/>
  </g>
  <g id="SvgjsG25737" transform="matrix(1.3973846373771452,0,0,1.3973846373771452,109,84.00008528958968)" fill="#ffffff" fill-rule="evenodd" stroke-width="1">
    <g transform="translate(-416.000000, -656.000000)" fill-rule="nonzero">
      <path d="M461.281489,679.464158 C459.038874,683.369624 454.826616,686 450,686 C445.173445,686 440.961232,683.36969 438.718595,679.464305 L427.054055,686.129757 C422.692005,688.622357 420,693.261165 420,698.285161 L420,718 C420,719.104569 419.104569,720 418,720 C416.895431,720 416,719.104569 416,718 L416,698.285161 C416,691.825737 419.461149,685.861555 425.069499,682.656784 L437.276798,675.681185 C437.095386,674.815974 437,673.919126 437,673 L437,669 C437,661.820298 442.820298,656 450,656 C457.179702,656 463,661.820298 463,669 L463,673 C463,673.919065 462.904627,674.815854 462.723239,675.68101 L474.930843,682.656784 C480.539193,685.861555 484.000342,691.825737 484.000342,698.285161 L484.000342,718 C484.000342,719.104569 483.104912,720 482.000342,720 C480.895773,720 480.000342,719.104569 480.000342,718 L480.000342,698.285161 C480.000342,693.261165 477.308337,688.622357 472.946287,686.129757 L461.281489,679.464158 L461.281489,679.464158 Z M441,669 L441,673 C441,677.970563 445.029437,682 450,682 C454.970563,682 459,677.970563 459,673 L459,669 C459,664.029437 454.970563,660 450,660 C445.029437,660 441,664.029437 441,669 Z M469.189548,701.816574 C471.594467,704.061851 473,707.227919 473,710.587952 L473,713.5 C473,719.29899 468.29899,724 462.5,724 L437.5,724 C431.70101,724 427,719.29899 427,713.5 L427,710.587952 C427,707.227919 428.405533,704.061851 430.810452,701.816574 C428.524164,700.408398 427,697.882193 427,695 L427,694 C427,692.895431 427.895431,692 429,692 C430.104569,692 431,692.895431 431,694 L431,695 C431,697.187352 432.755712,698.964636 434.934763,698.999479 L440.951805,695.296683 C441.892521,694.717781 443.124415,695.011089 443.703317,695.951805 C444.282219,696.892521 443.988911,698.124415 443.048195,698.703317 L434.807221,703.774685 C432.441241,705.230673 431,707.809866 431,710.587952 L431,713.5 C431,717.089851 433.910149,720 437.5,720 L462.5,720 C466.089851,720 469,717.089851 469,713.5 L469,710.587952 C469,707.809866 467.558759,705.230673 465.192779,703.774685 L456.951805,698.703317 C456.011089,698.124415 455.717781,696.892521 456.296683,695.951805 C456.875585,695.011089 458.107479,694.717781 459.048195,695.296683 L465.065237,698.999479 C467.244288,698.964636 469,697.187352 469,695 L469,694 C469,692.895431 469.895431,692 471,692 C472.104569,692 473,692.895431 473,694 L473,695 C473,697.882193 471.475836,700.408398 469.189548,701.816574 L469.189548,701.816574 Z M450,717 C448.895431,717 448,716.104569 448,715 C448,713.895431 448.895431,713 450,713 C451.104569,713 452,713.895431 452,715 C452,716.104569 451.104569,717 450,717 Z" fill="#ffffff"/>
    </g>
  </g>
  <g id="SvgjsG25738" transform="matrix(0.7983394403206368,0,0,0.7983394403206368,54.850391540934844,190.05859765932422)" fill="#ffffff">
    <path d="M14.04 34.64 c4.36 0 6.6 -2.8 6.6 -6.88 c0 -4.32 -2.4 -6.88 -6.6 -6.88 c-4.4 0 -6.6 2.8 -6.6 6.88 c0 4.24 2.44 6.88 6.6 6.88 z M14.04 40.2 c-7.52 0 -12.6 -5.12 -12.6 -12.44 c0 -7.56 5.32 -12.44 12.6 -12.44 c7.56 0 12.6 5.08 12.6 12.44 c0 7.6 -5.28 12.44 -12.6 12.44 z M36.08 30 c0 2.96 1.48 4.64 4.48 4.64 c0.84 0 1.6 -0.12 2.2 -0.4 c1.12 -0.44 1.88 -1.28 2.28 -2.44 c0.16 -0.56 0.24 -1.16 0.24 -1.8 s-0.08 -1.24 -0.24 -1.8 c-0.44 -1.24 -1.12 -1.92 -2.28 -2.48 c-0.6 -0.24 -1.36 -0.36 -2.2 -0.36 c-3 0 -4.48 1.68 -4.48 4.64 z M30.080000000000002 12 l6 0 l0 10 c1.36 -1.56 3.2 -2.2 5.24 -2.2 c5.84 0 9.96 4.68 9.96 10.28 c0 6.32 -4.68 10.12 -10.64 10.12 c-6.2 0 -10.56 -4.08 -10.56 -10.2 l0 -18 z M59.48 27.6 c0.6 0.2 1.28 0.36 2 0.44 c0.72 0.12 1.4 0.16 2.04 0.16 c0.8 0 2.84 -0.16 2.84 -1.32 c0 -1.24 -1.76 -1.28 -2.64 -1.28 c-1.76 0 -3.28 0.4 -4.24 2 z M70.8 33.76 l0 5.6 c-2.24 0.52 -4.48 0.88 -6.8 0.88 c-6.36 0 -11.08 -3.72 -11.08 -10.16 c0 -6.36 4.56 -10.28 10.6 -10.28 c4.12 0 8.88 1.96 8.88 6.64 c0 4.64 -5.04 6.36 -8.92 6.36 c-1.48 0 -2.96 -0.4 -4.32 -0.96 c0.8 2.24 3.2 2.6 5.28 2.6 c1.08 0 2.16 -0.04 3.24 -0.2 c1 -0.08 2.16 -0.2 3.12 -0.48 z M74.44 39.36 l0 -5.6 c2.64 0.8 5.96 0.96 8.68 0.96 c1.08 0 1.92 -0.04 2.52 -0.16 c0.56 -0.08 0.84 -0.28 0.84 -0.56 c0 -0.12 -0.04 -0.2 -0.12 -0.32 c-0.4 -0.4 -1.28 -0.6 -1.8 -0.72 s-1.2 -0.28 -2.04 -0.44 c-0.68 -0.12 -1.48 -0.28 -2.4 -0.48 c-3.12 -0.68 -5.52 -2.44 -5.52 -5.8 c0 -4.96 4.84 -6.44 8.92 -6.44 c2.56 0 5.12 0.36 7.64 0.88 l0 5.64 c-2.52 -0.76 -5.36 -0.96 -8 -0.96 c-1.04 0 -1.76 0.04 -2.2 0.16 s-0.68 0.32 -0.68 0.56 c0 0.36 0.36 0.6 1.04 0.72 c0.68 0.16 1.64 0.36 2.8 0.56 c1.04 0.2 2.04 0.4 3 0.64 c2.96 0.76 5.08 2.36 5.08 5.56 c0 5.36 -5.4 6.68 -9.72 6.68 c-2.72 0 -5.4 -0.36 -8.04 -0.88 z M94.83999999999999 20 l6 0 l0 20 l-6 0 l0 -20 z M97.83999999999999 18.12 c-2.04 0 -3.48 -1.44 -3.48 -3.48 c0 -2.08 1.44 -3.44 3.48 -3.44 c2.08 0 3.44 1.36 3.44 3.44 c0 2.12 -1.32 3.48 -3.44 3.48 z M116.32 20.68 l0 5.56 l-5.6 0 l0 3.76 c0 3.08 2.04 4.64 5 4.64 c0.36 0 0.68 -0.04 0.96 -0.08 s0.52 -0.08 0.8 -0.12 l0 5.56 c-0.36 0.04 -0.64 0.12 -0.84 0.16 c-0.24 0.04 -0.64 0.04 -1.16 0.04 c-6.04 0 -10.76 -4.12 -10.76 -10.2 l0 -14.8 l6 0 l0 5.48 l5.6 0 z M133.59999999999997 30 l0 -10 l6 0 l0 18.96 c0 6.36 -4.56 10.24 -10.6 10.24 c-2.12 0 -4.24 -0.2 -6.28 -0.88 l0 -6.16 c1.72 0.92 4.04 1.24 5.96 1.24 c2.16 0 3.88 -0.64 4.68 -2.72 c0.16 -0.56 0.24 -1.16 0.24 -1.76 l0 -0.92 c-1.36 1.52 -3.12 2.2 -5.12 2.2 c-5.68 0 -9.28 -4.88 -9.28 -10.2 l0 -10 l6 0 l0 10 c0 2.72 1.08 4.64 4 4.64 c2.84 0 4.4 -1.88 4.4 -4.64 z M160.16 15.52 l6.56 0 l-9.8 24.48 l-6 0 l-9.8 -24.48 l6.52 0 l6.28 17.64 z M168.8 20 l6 0 l0 20 l-6 0 l0 -20 z M171.8 18.12 c-2.04 0 -3.48 -1.44 -3.48 -3.48 c0 -2.08 1.44 -3.44 3.48 -3.44 c2.08 0 3.44 1.36 3.44 3.44 c0 2.12 -1.32 3.48 -3.44 3.48 z M178.08 39.36 l0 -5.6 c2.64 0.8 5.96 0.96 8.68 0.96 c1.08 0 1.92 -0.04 2.52 -0.16 c0.56 -0.08 0.84 -0.28 0.84 -0.56 c0 -0.12 -0.04 -0.2 -0.12 -0.32 c-0.4 -0.4 -1.28 -0.6 -1.8 -0.72 s-1.2 -0.28 -2.04 -0.44 c-0.68 -0.12 -1.48 -0.28 -2.4 -0.48 c-3.12 -0.68 -5.52 -2.44 -5.52 -5.8 c0 -4.96 4.84 -6.44 8.92 -6.44 c2.56 0 5.12 0.36 7.64 0.88 l0 5.64 c-2.52 -0.76 -5.36 -0.96 -8 -0.96 c-1.04 0 -1.76 0.04 -2.2 0.16 s-0.68 0.32 -0.68 0.56 c0 0.36 0.36 0.6 1.04 0.72 c0.68 0.16 1.64 0.36 2.8 0.56 c1.04 0.2 2.04 0.4 3 0.64 c2.96 0.76 5.08 2.36 5.08 5.56 c0 5.36 -5.4 6.68 -9.72 6.68 c-2.72 0 -5.4 -0.36 -8.04 -0.88 z M198.48000000000002 20 l6 0 l0 20 l-6 0 l0 -20 z M201.48000000000002 18.12 c-2.04 0 -3.48 -1.44 -3.48 -3.48 c0 -2.08 1.44 -3.44 3.48 -3.44 c2.08 0 3.44 1.36 3.44 3.44 c0 2.12 -1.32 3.48 -3.44 3.48 z M218.12 34.64 c2.92 0 4.6 -1.72 4.6 -4.64 s-1.68 -4.64 -4.6 -4.64 s-4.6 1.72 -4.6 4.64 s1.68 4.64 4.6 4.64 z M218.12 40.2 c-6.16 0 -10.6 -4.08 -10.6 -10.2 c0 -6.32 4.6 -10.2 10.6 -10.2 c6.2 0 10.6 4.08 10.6 10.2 c0 6.28 -4.64 10.2 -10.6 10.2 z M251.96 30 l0 10 l-6 0 l0 -10 c0 -2.76 -1.28 -4.64 -4.2 -4.64 c-2.88 0 -4.2 1.92 -4.2 4.64 l0 10 l-6 0 l0 -10 c0 -6.16 4.24 -10.2 10.2 -10.2 c6.2 0 10.2 4.24 10.2 10.2 z"/>
  </g>
</svg>
